<?xml version="1.0" encoding="utf-8"?>
<!-- Generator: Adobe Illustrator 24.3.0, SVG Export Plug-In . SVG Version: 6.00 Build 0)  -->
<svg version="1.1" id="Layer_1" xmlns="http://www.w3.org/2000/svg" xmlns:xlink="http://www.w3.org/1999/xlink" x="0px" y="0px"
	 viewBox="0 0 351.44 206" style="enable-background:new 0 0 351.44 206;" xml:space="preserve">
<style type="text/css">
	.st0{fill:#6E4C15;stroke:#6E4C15;stroke-miterlimit:10;}
	.st1{fill:#6E4C15;}
</style>
<g>
	<g>
		<g>
			<path class="st0" d="M178.97,147.74c0.09-0.03,0.17-0.03,0.25-0.01c0.08,0.02,0.11,0.08,0.11,0.17l0.05,0.88
				c0.02,0.2-0.09,0.33-0.32,0.41c-0.5,0.17-1.01,0.29-1.54,0.36c-0.53,0.08-1.19,0.11-1.99,0.11c-2.62,0-4.71-0.8-6.26-2.4
				c-0.77-0.78-1.34-1.7-1.71-2.74c-0.37-1.04-0.55-2.22-0.55-3.53c0-2.58,0.78-4.67,2.33-6.26c1.58-1.6,3.65-2.4,6.2-2.4
				c0.36,0,0.69,0.01,0.98,0.02c0.29,0.02,0.58,0.04,0.86,0.07c0.28,0.03,0.55,0.07,0.83,0.11c0.27,0.05,0.56,0.11,0.86,0.18
				c0.23,0.05,0.33,0.19,0.32,0.43l-0.05,0.9c-0.03,0.21-0.14,0.28-0.34,0.2c-0.59-0.2-1.15-0.33-1.67-0.4
				c-0.53-0.07-1.12-0.1-1.79-0.1c-2.13,0-3.82,0.68-5.09,2.04c-1.18,1.31-1.76,3.04-1.76,5.2c0,1.09,0.14,2.07,0.43,2.94
				c0.29,0.87,0.72,1.64,1.31,2.28c1.22,1.36,2.92,2.03,5.11,2.01c0.63-0.02,1.26-0.06,1.89-0.14
				C178.05,148.03,178.56,147.91,178.97,147.74z"/>
			<path class="st0" d="M197.88,143.26c0,0.89-0.13,1.72-0.38,2.48c-0.26,0.76-0.6,1.43-1.02,2c-0.53,0.63-1.16,1.12-1.89,1.47
				c-0.73,0.35-1.56,0.52-2.5,0.52c-0.94,0-1.77-0.17-2.51-0.52c-0.74-0.35-1.37-0.84-1.9-1.47c-0.42-0.57-0.76-1.24-1.01-2
				c-0.25-0.76-0.37-1.59-0.37-2.48c0-1.82,0.46-3.32,1.38-4.48c1.05-1.31,2.52-1.97,4.41-1.97c0.95,0,1.79,0.16,2.51,0.49
				c0.72,0.32,1.35,0.82,1.88,1.48C197.41,139.98,197.88,141.47,197.88,143.26z M196.2,143.26c0-0.71-0.09-1.37-0.28-1.99
				s-0.45-1.17-0.78-1.65c-0.78-0.96-1.8-1.45-3.05-1.45c-0.63,0-1.2,0.12-1.71,0.37c-0.5,0.25-0.95,0.61-1.34,1.07
				c-0.35,0.48-0.61,1.03-0.8,1.65c-0.19,0.62-0.28,1.28-0.28,1.99c0,0.72,0.09,1.39,0.28,2.01c0.19,0.62,0.46,1.16,0.8,1.63
				c0.8,0.98,1.82,1.47,3.05,1.47c0.63,0,1.2-0.13,1.71-0.38c0.5-0.26,0.95-0.62,1.35-1.09c0.33-0.47,0.59-1.01,0.78-1.63
				C196.11,144.66,196.2,143.99,196.2,143.26z"/>
			<path class="st0" d="M207.1,149.05c0,0.21-0.11,0.32-0.32,0.32h-1.04c-0.21,0-0.32-0.11-0.32-0.32v-15.76
				c0-0.33,0.03-0.52,0.08-0.58c0.05-0.05,0.24-0.08,0.58-0.08h7.55c0.21,0,0.32,0.11,0.32,0.32v0.77c0,0.21-0.11,0.32-0.32,0.32
				h-6.54v5.99h6.22c0.21,0,0.32,0.11,0.32,0.32v0.81c0,0.21-0.11,0.32-0.32,0.32h-6.22V149.05z"/>
			<path class="st0" d="M223,149.05c0,0.21-0.11,0.32-0.32,0.32h-1.04c-0.21,0-0.32-0.11-0.32-0.32v-15.76
				c0-0.33,0.03-0.52,0.08-0.58c0.05-0.05,0.24-0.08,0.58-0.08h7.55c0.21,0,0.32,0.11,0.32,0.32v0.77c0,0.21-0.11,0.32-0.32,0.32
				H223v5.99h6.22c0.21,0,0.32,0.11,0.32,0.32v0.81c0,0.21-0.11,0.32-0.32,0.32H223V149.05z"/>
			<path class="st0" d="M238.04,143.69c-0.02,0.75,0.07,1.42,0.26,2c0.19,0.58,0.46,1.07,0.82,1.46c0.36,0.39,0.8,0.69,1.3,0.9
				c0.5,0.21,1.07,0.32,1.69,0.32c0.6,0,1.17-0.06,1.7-0.17c0.53-0.11,1.02-0.3,1.47-0.55c0.2-0.09,0.29-0.04,0.29,0.16v1.02
				c0,0.14-0.08,0.24-0.25,0.32c-0.5,0.2-1.02,0.34-1.56,0.44c-0.54,0.1-1.13,0.15-1.76,0.15c-1.85,0-3.26-0.54-4.21-1.62
				c-0.95-1.08-1.42-2.7-1.42-4.87c0-1.91,0.47-3.46,1.42-4.64c1-1.19,2.25-1.79,3.78-1.79c0.84,0,1.58,0.15,2.19,0.45
				c0.62,0.3,1.15,0.75,1.58,1.36c0.77,1.07,1.15,2.5,1.15,4.3c0,0.2,0,0.35-0.01,0.45c-0.01,0.11-0.03,0.18-0.08,0.23
				c-0.05,0.05-0.12,0.07-0.24,0.08c-0.11,0.01-0.27,0.01-0.49,0.01H238.04z M244.82,142.41c0-0.62-0.06-1.17-0.18-1.65
				c-0.12-0.48-0.31-0.92-0.57-1.31c-0.56-0.89-1.36-1.33-2.42-1.33c-1.09,0-1.97,0.45-2.65,1.36c-0.27,0.41-0.5,0.88-0.68,1.4
				c-0.18,0.53-0.28,1.04-0.29,1.54H244.82z"/>
			<path class="st0" d="M276.41,147.74c0.09-0.03,0.17-0.03,0.25-0.01c0.08,0.02,0.11,0.08,0.11,0.17l0.05,0.88
				c0.02,0.2-0.09,0.33-0.32,0.41c-0.5,0.17-1.01,0.29-1.54,0.36c-0.53,0.08-1.19,0.11-1.99,0.11c-2.62,0-4.71-0.8-6.26-2.4
				c-0.77-0.78-1.34-1.7-1.71-2.74c-0.37-1.04-0.55-2.22-0.55-3.53c0-2.58,0.78-4.67,2.33-6.26c1.58-1.6,3.65-2.4,6.2-2.4
				c0.36,0,0.69,0.01,0.98,0.02c0.29,0.02,0.58,0.04,0.86,0.07c0.28,0.03,0.55,0.07,0.83,0.11c0.27,0.05,0.56,0.11,0.86,0.18
				c0.23,0.05,0.33,0.19,0.32,0.43l-0.05,0.9c-0.03,0.21-0.14,0.28-0.34,0.2c-0.59-0.2-1.15-0.33-1.67-0.4
				c-0.53-0.07-1.12-0.1-1.79-0.1c-2.13,0-3.82,0.68-5.09,2.04c-1.18,1.31-1.76,3.04-1.76,5.2c0,1.09,0.14,2.07,0.43,2.94
				c0.29,0.87,0.72,1.64,1.31,2.28c1.22,1.36,2.92,2.03,5.11,2.01c0.63-0.02,1.26-0.06,1.89-0.14
				C275.49,148.03,276.01,147.91,276.41,147.74z"/>
			<path class="st0" d="M294.37,149.05c0,0.21-0.11,0.32-0.32,0.32h-0.9c-0.21,0-0.32-0.11-0.32-0.32v-6.96
				c0-0.72-0.06-1.34-0.19-1.84c-0.13-0.5-0.31-0.91-0.55-1.22c-0.24-0.31-0.53-0.53-0.88-0.67c-0.35-0.14-0.73-0.2-1.15-0.2
				c-1.24,0-2.18,0.29-2.84,0.88c-0.66,0.59-0.98,1.4-0.98,2.44v7.58c0,0.21-0.11,0.32-0.32,0.32h-0.9c-0.21,0-0.32-0.11-0.32-0.32
				v-17.37c0-0.21,0.11-0.32,0.32-0.32h0.9c0.21,0,0.32,0.11,0.32,0.32v6.56c0.42-0.48,0.95-0.83,1.57-1.05
				c0.63-0.22,1.41-0.33,2.34-0.33c1.46,0,2.53,0.43,3.21,1.29c0.68,0.86,1.02,2.16,1.02,3.91V149.05z"/>
			<path class="st0" d="M303.44,139.04c-0.08,0.05-0.15,0.06-0.21,0.03c-0.07-0.02-0.1-0.07-0.1-0.15v-0.86
				c0-0.21,0.11-0.37,0.32-0.48c0.53-0.29,1.09-0.49,1.69-0.6c0.59-0.11,1.25-0.17,1.96-0.17c1.51,0,2.61,0.36,3.3,1.07
				c0.69,0.72,1.04,1.8,1.04,3.24v5.68c0,0.45,0.01,0.86,0.02,1.21c0.02,0.35,0.04,0.7,0.07,1.03c0,0.21-0.11,0.32-0.32,0.32h-0.81
				c-0.21,0-0.32-0.11-0.32-0.32v-1.74c-0.32,0.77-0.85,1.36-1.59,1.79c-0.75,0.42-1.56,0.63-2.43,0.63c-1.52,0-2.64-0.44-3.35-1.33
				c-0.24-0.3-0.42-0.65-0.54-1.05c-0.12-0.4-0.18-0.8-0.18-1.19c0-0.92,0.21-1.71,0.64-2.37c0.43-0.66,1.09-1.16,1.98-1.49
				c1.08-0.39,2.75-0.59,5-0.59h0.29v-0.68c0-0.95-0.21-1.67-0.64-2.17c-0.43-0.5-1.15-0.75-2.16-0.75c-0.68,0-1.32,0.07-1.92,0.21
				C304.55,138.47,303.98,138.7,303.44,139.04z M309.88,142.99h-0.43c-0.84-0.03-1.59,0-2.25,0.1c-0.66,0.1-1.2,0.23-1.64,0.4
				c-0.63,0.23-1.11,0.56-1.43,1.01c-0.32,0.44-0.47,0.98-0.47,1.59c0,0.38,0.06,0.73,0.18,1.05c0.12,0.32,0.31,0.58,0.56,0.76
				c0.45,0.36,1.05,0.54,1.81,0.54c0.53,0,1.01-0.11,1.46-0.32c0.44-0.21,0.83-0.51,1.16-0.9c0.33-0.39,0.59-0.88,0.77-1.46
				c0.18-0.58,0.27-1.25,0.27-2V142.99z"/>
			<path class="st0" d="M325.46,149.39c-0.63,0.23-1.26,0.34-1.88,0.34c-1.22,0-2.03-0.4-2.42-1.2c-0.26-0.54-0.38-1.5-0.38-2.87
				v-7.21h-2.13c-0.21,0-0.32-0.11-0.32-0.32v-0.68c0-0.21,0.11-0.32,0.32-0.32h2.13v-3.05c0-0.23,0.1-0.34,0.29-0.34h0.95
				c0.2,0,0.29,0.11,0.29,0.34v3.05h2.51c0.21,0,0.32,0.11,0.32,0.32v0.68c0,0.21-0.11,0.32-0.32,0.32h-2.51v7.98
				c0,1.34,0.54,2.01,1.63,2.01c0.42,0,0.9-0.09,1.42-0.27c0.08-0.03,0.15-0.03,0.21,0c0.07,0.03,0.1,0.09,0.1,0.18l0.05,0.59
				C325.76,149.15,325.67,149.3,325.46,149.39z"/>
		</g>
	</g>
	<g>
		<path class="st1" d="M155.98,76.89c0.09,1.3,0.18,2.6,0.28,4.17c3.52-1.73,6.63-3.71,10.03-4.84c9.24-3.06,16.71,1.74,17.67,11.38
			c1.28,12.77-3.65,23.05-13.6,30.88c-3.84,3.02-8.41,4.85-13.05,1.66c-4.68-3.22-4.55-8.35-2.94-12.8
			c1.51-4.18,4.54-7.8,7.79-11.03c-1.55,4.31-3.6,8.53-4.43,12.98c-0.39,2.11,0.94,5.57,2.63,6.7c1.3,0.87,4.85-0.34,6.62-1.66
			c6.91-5.19,10.62-17.05,8.3-25.02c-1.55-5.33-4.5-6.69-9.46-4.04c-7.15,3.8-11.59,9.94-14.89,17.21
			c-8.51,18.75-22.43,30.83-43.25,33.91c-10.66,1.57-20.76-0.57-30.29-5.5c-1.63-0.84-3.24-1.74-5-2.69c-3,3.67-2.26,7.11,1.29,8.99
			c4.23,2.23,8.92,4.12,13.61,4.84c12.46,1.92,24.84,1.25,36.76-3.49c0.56-0.22,1.21-0.21,3.28-0.53
			c-10.14,6.32-19.95,9.36-30.27,9.74c-7.31,0.27-14.71-0.92-22.02-1.84c-2.23-0.28-4.47-1.54-6.41-2.8
			c-5.72-3.75-6.03-8.79-1-13.31c0.87-0.78,1.86-1.44,3.32-2.55C54.45,113.89,46.36,96.64,47.18,75.4c0.24,0.8,0.58,1.58,0.7,2.39
			c2.28,14.74,10.42,26.07,21.12,35.8c19.9,18.11,43.58,18.44,64.29,1.06C145.21,104.64,152.35,91.84,155.98,76.89z"/>
		<path class="st1" d="M116.37,94.89c-8.97-1.46-18.03-2.5-26.89-4.48c-12.09-2.7-23.43-7.45-33.1-15.45
			c-2.31-1.91-4.47-4.16-6.15-6.63c-5.36-7.91-3.9-16.01,3.82-21.68c7.58-5.57,16.46-7.65,25.58-8.44
			c19.66-1.7,38.69,1.29,56.7,9.34c5.44,2.44,10.67,5.86,15.17,9.78c8.26,7.2,6.81,16.51-2.97,21.48c-2.8,1.42-5.96,2.53-9.07,2.92
			c-18.41,2.35-35.88-0.92-52.17-9.8c-4.51-2.46-8.98-5.85-7.78-11.78c1.22-6.04,6.85-6.91,11.87-7.62
			c10.05-1.43,19.51,0.81,28.07,6.04c2.2,1.34,3.26,4.55,4.84,6.9c-2.48,1.36-4.82,3.24-7.47,3.94c-2.32,0.62-4.98-0.07-8.94-0.25
			c4.85-0.69,8.4-0.74,11.64-1.76c3.78-1.19,4-3.57,0.66-5.57c-9.87-5.91-20.48-7.44-31.57-4.33c-1.71,0.48-4.05,2.19-4.26,3.61
			c-0.21,1.41,1.72,3.33,3.04,4.71c1.01,1.06,2.45,1.8,3.82,2.41c14.45,6.4,29.52,9.26,45.27,7.29c3.42-0.43,6.9-1.68,9.95-3.31
			c4.17-2.22,4.68-5.16,1.42-8.6c-2.61-2.75-5.8-5.15-9.14-6.98c-20.4-11.16-42.3-14.17-65.02-10.47
			c-4.87,0.79-9.56,3.92-13.84,6.73c-3.48,2.28-4.2,6.31-1.75,9.83c2.46,3.54,5.15,7.23,8.56,9.75
			c14.52,10.74,30.26,18.87,48.7,20.44c0.43,0.04,0.84,0.35,1.26,0.54C116.54,93.93,116.45,94.41,116.37,94.89z"/>
		<path class="st1" d="M161.08,139.94c-6.22,7.3-15.3,12.4-25.11,16.07c-27.3,10.21-55.24,11.01-83.34,4.03
			c-5.52-1.37-11-4.37-15.54-7.86c-6.67-5.13-6.08-11.68,0.75-16.65c2.81-2.04,6.04-3.51,9.7-4.62c-0.36,0.63-0.71,1.26-1.07,1.88
			c-3.96,7.01-2.7,13.19,4.72,16.28c6.88,2.87,14.36,5.16,21.74,5.82c22.24,1.98,44.45,1.14,65.95-5.61
			C146.83,146.8,154.28,142.85,161.08,139.94z"/>
	</g>
</g>
</svg>
